<svg width="223" height="73" viewBox="0 0 223 73" fill="none" xmlns="http://www.w3.org/2000/svg">
<path d="M27.6191 41.32C23.5657 42.3067 20.4991 43.32 18.4191 44.36C13.0591 47.1333 9.20573 50.0267 6.85906 53.04C4.5124 56.08 3.32573 59.96 3.29906 64.68C3.29906 66.8933 3.6724 68.6267 4.41906 69.88C5.13906 71.16 6.21906 71.8 7.65906 71.8C9.09906 71.8 10.4324 71.3067 11.6591 70.32C12.8591 69.3333 14.0991 67.9067 15.3791 66.04C17.0857 63.48 18.7124 60.7067 20.2591 57.72C21.8591 54.7333 23.0324 52.36 23.7791 50.6C25.5391 46.4933 26.8191 43.4 27.6191 41.32ZM45.7791 5.56C46.2591 5.37333 47.0724 5.2 48.2191 5.04C49.3924 4.85333 50.1657 4.76 50.5391 4.76C50.9391 4.76 51.1391 4.84 51.1391 5C51.1391 5.08 51.0857 5.16 50.9791 5.24L50.4991 5.56C49.8591 5.98666 48.3391 7.93333 45.9391 11.4C45.4324 12.1467 44.8324 13.12 44.1391 14.32C43.4457 15.52 42.9391 16.3867 42.6191 16.92C42.3257 17.4533 41.7924 18.4933 41.0191 20.04C40.2724 21.56 39.7924 22.5333 39.5791 22.96C39.3924 23.3867 38.8457 24.56 37.9391 26.48C37.0324 28.4 36.4724 29.5867 36.2591 30.04L31.8591 39.4C35.1657 38.6 37.6191 37.7867 39.2191 36.96C40.8457 36.1067 42.6057 34.8933 44.4991 33.32C46.2857 31.7467 47.5924 30.3333 48.4191 29.08C48.5257 28.92 48.6324 28.84 48.7391 28.84C48.8457 28.84 48.8991 28.88 48.8991 28.96C48.8991 29.04 48.8724 29.1333 48.8191 29.24C47.3257 31.2133 45.8724 32.84 44.4591 34.12C43.0457 35.3733 41.3657 36.52 39.4191 37.56C37.4991 38.6 34.7924 39.56 31.2991 40.44C25.7791 51.88 21.0857 60.3067 17.2191 65.72C13.7791 70.52 10.1257 72.92 6.25906 72.92C4.33906 72.92 2.84573 72.2133 1.77906 70.8C0.712395 69.3867 0.179062 67.2667 0.179062 64.44C0.179062 60.7333 1.5924 57.0133 4.41906 53.28C5.8324 51.4133 7.72573 49.6 10.0991 47.84C12.4724 46.08 15.0857 44.56 17.9391 43.28C20.7924 42.0267 24.1791 41 28.0991 40.2C29.4857 36.7333 30.8991 33.56 32.3391 30.68C35.9391 23.0533 39.2991 16.8933 42.4191 12.2L46.0991 6.6C45.2191 6.86667 43.6591 7.14667 41.4191 7.44C39.2057 7.73333 37.5124 7.90666 36.3391 7.96C35.6457 8.84 34.4457 10.12 32.7391 11.8C31.0324 13.4533 29.4857 14.8667 28.0991 16.04C27.6724 16.4667 27.3791 16.68 27.2191 16.68C27.0591 16.68 26.9791 16.6267 26.9791 16.52C26.9791 16.3333 27.2857 16 27.8991 15.52C28.5124 15.0133 29.6857 13.88 31.4191 12.12C33.1524 10.3333 34.4191 8.94667 35.2191 7.96C29.6724 7.96 26.8991 7.05333 26.8991 5.24C26.8991 4.22667 27.4724 3.30667 28.6191 2.48C29.7924 1.62666 31.0457 1.01333 32.3791 0.639998C33.7391 0.239998 34.8991 0.0399985 35.8591 0.0399985C38.0991 0.0399985 39.2191 0.786665 39.2191 2.28C39.2191 3.16 38.4724 4.76 36.9791 7.08C40.6057 6.89333 43.5391 6.38666 45.7791 5.56ZM35.8591 7.16C36.8724 5.69333 37.3791 4.54667 37.3791 3.72C37.3791 2.86667 37.0857 2.2 36.4991 1.72C35.9124 1.24 35.0724 0.999998 33.9791 0.999998C32.8857 0.999998 31.8057 1.32 30.7391 1.96C29.6724 2.57333 29.1391 3.53333 29.1391 4.84C29.1391 5.45333 29.2991 5.86667 29.6191 6.08C29.9391 6.29333 30.2057 6.46666 30.4191 6.6C30.6324 6.70666 30.9257 6.8 31.2991 6.88C31.6991 6.93333 32.0324 6.98666 32.2991 7.04C32.5924 7.06667 32.9791 7.09333 33.4591 7.12C33.9924 7.14666 34.3924 7.16 34.6591 7.16H35.8591ZM59.8231 39C58.0098 39 56.7698 38.6533 56.1031 37.96C55.4898 37.3733 55.1831 36.8667 55.1831 36.44V35.6C53.8765 37.9733 51.7831 39.16 48.9031 39.16C45.5431 39.16 43.6365 37.64 43.1831 34.6C43.1298 34.28 43.1031 33.96 43.1031 33.64C43.1031 33.2933 43.1565 32.92 43.2631 32.52C43.3698 32.12 43.6765 31.68 44.1831 31.2C45.1965 30.24 47.4231 29.6533 50.8631 29.44C51.7165 29.36 52.5031 29.32 53.2231 29.32C53.9431 29.32 54.5965 29.3467 55.1831 29.4V22.76C55.1298 22.7333 55.1298 22.6133 55.1831 22.4C55.2365 22.16 55.1831 21.8667 55.0231 21.52C54.8898 21.1467 54.7031 20.7867 54.4631 20.44C54.2231 20.0933 53.7965 19.8 53.1831 19.56C52.5698 19.2933 51.7698 19.16 50.7831 19.16C49.7965 19.16 48.6365 19.3467 47.3031 19.72C45.9965 20.0667 45.0365 20.4133 44.4231 20.76L44.2631 20.48C46.6365 19.3867 49.0498 18.84 51.5031 18.84C54.2498 18.84 56.0631 19.3333 56.9431 20.32C57.6365 21.0933 57.9831 21.9067 57.9831 22.76V36.16C57.9831 36.9333 58.1298 37.5333 58.4231 37.96C58.7431 38.36 59.0631 38.5733 59.3831 38.6L59.8231 38.68H61.0631V39H59.8231ZM49.5431 38.84C50.9565 38.84 52.2231 38.36 53.3431 37.4C54.4898 36.4133 55.1031 35.4667 55.1831 34.56V29.72C54.4631 29.6667 53.7298 29.64 52.9831 29.64C52.2631 29.64 51.5431 29.68 50.8231 29.76C48.7965 30 47.4765 30.4533 46.8631 31.12C46.2498 31.7867 45.9431 32.7067 45.9431 33.88C45.9431 34.0933 45.9565 34.3333 45.9831 34.6C46.2231 37.4267 47.4098 38.84 49.5431 38.84ZM74.9441 20.4C74.5174 20.0533 73.8241 19.76 72.8641 19.52C71.9307 19.28 71.2241 19.16 70.7441 19.16C70.2641 19.16 69.9841 19.16 69.9041 19.16C68.4641 19.1867 67.4241 19.56 66.7841 20.28C66.1441 20.9733 65.8241 21.76 65.8241 22.64C65.8241 23.52 66.1041 24.2667 66.6641 24.88C67.2241 25.4667 67.9174 25.9333 68.7441 26.28C69.5974 26.6 70.5041 26.9733 71.4641 27.4C72.4507 27.8267 73.3574 28.2667 74.1841 28.72C75.0374 29.1467 75.7441 29.7867 76.3041 30.64C76.8641 31.4667 77.1441 32.5067 77.1441 33.76C77.1441 35.0133 76.7041 36.08 75.8241 36.96C74.9441 37.84 73.9574 38.4267 72.8641 38.72C71.7974 39.0133 70.6374 39.16 69.3841 39.16C66.6641 39.16 64.6241 38.56 63.2641 37.36L63.5041 37.12C64.0374 37.6267 64.8241 38.04 65.8641 38.36C66.9307 38.68 67.9574 38.84 68.9441 38.84C70.5174 38.84 71.8107 38.4133 72.8241 37.56C73.8641 36.68 74.3841 35.6 74.3841 34.32C74.3841 33.0133 73.9974 31.9733 73.2241 31.2C72.4507 30.4 71.5041 29.7867 70.3841 29.36C69.2907 28.9067 68.1841 28.4667 67.0641 28.04C65.9441 27.5867 64.9974 26.9733 64.2241 26.2C63.4507 25.4 63.0641 24.48 63.0641 23.44C63.0641 22.4 63.3041 21.56 63.7841 20.92C64.2641 20.2533 64.9041 19.7867 65.7041 19.52C67.0641 19.0667 68.4241 18.84 69.7841 18.84C72.0774 18.84 73.8641 19.2667 75.1441 20.12L74.9441 20.4ZM79.7578 19H82.5578V23.96C83.0111 22.7333 83.8511 21.5733 85.0778 20.48C86.3045 19.3867 87.6911 18.84 89.2378 18.84C94.6511 18.84 97.3578 22.0133 97.3578 28.36C97.3578 35.56 93.8645 39.16 86.8778 39.16C85.6245 39.16 84.1845 38.8667 82.5578 38.28V49H79.7578V19ZM89.1978 19.16C87.5445 19.16 86.0511 19.88 84.7178 21.32C83.3845 22.7333 82.6645 24.0133 82.5578 25.16V37.92C84.1845 38.5333 85.6111 38.84 86.8378 38.84C91.9845 38.84 94.5578 35.3333 94.5578 28.32C94.5578 22.2133 92.7711 19.16 89.1978 19.16ZM103.289 29.24C103.289 32.5467 103.862 34.9733 105.009 36.52C106.182 38.0667 107.715 38.84 109.609 38.84C112.275 38.84 114.649 38.44 116.729 37.64L116.849 37.92C114.715 38.7467 112.302 39.16 109.609 39.16C106.942 39.16 104.769 38.36 103.089 36.76C101.409 35.16 100.569 32.6933 100.569 29.36C100.569 26.0267 101.449 23.44 103.209 21.6C104.969 19.76 107.209 18.84 109.929 18.84C112.115 18.84 113.955 19.4933 115.449 20.8C116.942 22.1067 117.689 24.04 117.689 26.6C117.689 26.7333 117.689 26.8667 117.689 27H103.409C103.329 27.72 103.289 28.4667 103.289 29.24ZM114.969 26.68C114.942 24.12 114.449 22.2267 113.489 21C112.529 19.7733 111.289 19.16 109.769 19.16C108.249 19.16 106.889 19.8267 105.689 21.16C104.515 22.4933 103.769 24.3333 103.449 26.68H114.969ZM126.959 20.72V19.88C125.759 20.36 124.665 21.3333 123.679 22.8C122.692 24.24 122.172 25.6 122.119 26.88V39H119.319V19H122.119V25.36C122.545 23.8133 123.359 22.36 124.559 21C125.759 19.6133 127.119 18.8933 128.639 18.84H128.799C129.332 18.84 129.772 19.0267 130.119 19.4C130.492 19.7467 130.679 20.1867 130.679 20.72C130.679 21.2533 130.492 21.6933 130.119 22.04C129.772 22.3867 129.332 22.56 128.799 22.56C128.265 22.56 127.825 22.3867 127.479 22.04C127.132 21.6933 126.959 21.2533 126.959 20.72ZM162.047 39H146.847V11H150.167V38.6H162.047V39ZM180.995 39C179.182 39 177.942 38.6533 177.275 37.96C176.662 37.3733 176.355 36.8667 176.355 36.44V35.6C175.048 37.9733 172.955 39.16 170.075 39.16C166.715 39.16 164.808 37.64 164.355 34.6C164.302 34.28 164.275 33.96 164.275 33.64C164.275 33.2933 164.328 32.92 164.435 32.52C164.542 32.12 164.848 31.68 165.355 31.2C166.368 30.24 168.595 29.6533 172.035 29.44C172.888 29.36 173.675 29.32 174.395 29.32C175.115 29.32 175.768 29.3467 176.355 29.4V22.76C176.302 22.7333 176.302 22.6133 176.355 22.4C176.408 22.16 176.355 21.8667 176.195 21.52C176.062 21.1467 175.875 20.7867 175.635 20.44C175.395 20.0933 174.968 19.8 174.355 19.56C173.742 19.2933 172.942 19.16 171.955 19.16C170.968 19.16 169.808 19.3467 168.475 19.72C167.168 20.0667 166.208 20.4133 165.595 20.76L165.435 20.48C167.808 19.3867 170.222 18.84 172.675 18.84C175.422 18.84 177.235 19.3333 178.115 20.32C178.808 21.0933 179.155 21.9067 179.155 22.76V36.16C179.155 36.9333 179.302 37.5333 179.595 37.96C179.915 38.36 180.235 38.5733 180.555 38.6L180.995 38.68H182.235V39H180.995ZM170.715 38.84C172.128 38.84 173.395 38.36 174.515 37.4C175.662 36.4133 176.275 35.4667 176.355 34.56V29.72C175.635 29.6667 174.902 29.64 174.155 29.64C173.435 29.64 172.715 29.68 171.995 29.76C169.968 30 168.648 30.4533 168.035 31.12C167.422 31.7867 167.115 32.7067 167.115 33.88C167.115 34.0933 167.128 34.3333 167.155 34.6C167.395 37.4267 168.582 38.84 170.715 38.84ZM201.036 39C199.943 39 199.103 38.76 198.516 38.28C197.956 37.8 197.663 37.32 197.636 36.84L197.596 36.16V23.6C197.596 21.4933 197.049 20.1467 195.956 19.56C195.396 19.2933 194.703 19.16 193.876 19.16C192.169 19.16 190.636 19.84 189.276 21.2C187.916 22.5333 187.236 23.7333 187.236 24.8V39H184.436V19H187.236V23.56C187.689 22.4133 188.529 21.3467 189.756 20.36C190.983 19.3467 192.329 18.84 193.796 18.84C195.263 18.84 196.449 18.9867 197.356 19.28C198.289 19.5467 198.969 19.9333 199.396 20.44C200.063 21.2667 200.396 22.3333 200.396 23.64V36.16C200.396 36.9333 200.543 37.5333 200.836 37.96C201.156 38.36 201.476 38.5733 201.796 38.6L202.236 38.68H203.476V39H201.036ZM207.82 29.24C207.82 32.5467 208.393 34.9733 209.54 36.52C210.713 38.0667 212.247 38.84 214.14 38.84C216.807 38.84 219.18 38.44 221.26 37.64L221.38 37.92C219.247 38.7467 216.833 39.16 214.14 39.16C211.473 39.16 209.3 38.36 207.62 36.76C205.94 35.16 205.1 32.6933 205.1 29.36C205.1 26.0267 205.98 23.44 207.74 21.6C209.5 19.76 211.74 18.84 214.46 18.84C216.647 18.84 218.487 19.4933 219.98 20.8C221.473 22.1067 222.22 24.04 222.22 26.6C222.22 26.7333 222.22 26.8667 222.22 27H207.94C207.86 27.72 207.82 28.4667 207.82 29.24ZM219.5 26.68C219.473 24.12 218.98 22.2267 218.02 21C217.06 19.7733 215.82 19.16 214.3 19.16C212.78 19.16 211.42 19.8267 210.22 21.16C209.047 22.4933 208.3 24.3333 207.98 26.68H219.5Z" fill="#0D53BA"/>
</svg>
