<svg width="77" height="73" viewBox="0 0 77 73" fill="none" xmlns="http://www.w3.org/2000/svg">
<path d="M27.9902 41.32C23.9368 42.3067 20.8702 43.32 18.7902 44.36C13.4302 47.1333 9.57682 50.0267 7.23016 53.04C4.88349 56.08 3.69682 59.96 3.67016 64.68C3.67016 66.8933 4.04349 68.6267 4.79016 69.88C5.51016 71.16 6.59016 71.8 8.03016 71.8C9.47016 71.8 10.8035 71.3067 12.0302 70.32C13.2302 69.3333 14.4702 67.9067 15.7502 66.04C17.4568 63.48 19.0835 60.7067 20.6302 57.72C22.2302 54.7333 23.4035 52.36 24.1502 50.6C25.9102 46.4933 27.1902 43.4 27.9902 41.32ZM46.1502 5.56C46.6302 5.37333 47.4435 5.2 48.5902 5.04C49.7635 4.85333 50.5368 4.76 50.9102 4.76C51.3102 4.76 51.5102 4.84 51.5102 5C51.5102 5.08 51.4568 5.16 51.3502 5.24L50.8702 5.56C50.2302 5.98666 48.7102 7.93333 46.3102 11.4C45.8035 12.1467 45.2035 13.12 44.5102 14.32C43.8168 15.52 43.3102 16.3867 42.9902 16.92C42.6968 17.4533 42.1635 18.4933 41.3902 20.04C40.6435 21.56 40.1635 22.5333 39.9502 22.96C39.7635 23.3867 39.2168 24.56 38.3102 26.48C37.4035 28.4 36.8435 29.5867 36.6302 30.04L32.2302 39.4C35.5368 38.6 37.9902 37.7867 39.5902 36.96C41.2168 36.1067 42.9768 34.8933 44.8702 33.32C46.6568 31.7467 47.9635 30.3333 48.7902 29.08C48.8968 28.92 49.0035 28.84 49.1102 28.84C49.2168 28.84 49.2702 28.88 49.2702 28.96C49.2702 29.04 49.2435 29.1333 49.1902 29.24C47.6968 31.2133 46.2435 32.84 44.8302 34.12C43.4168 35.3733 41.7368 36.52 39.7902 37.56C37.8702 38.6 35.1635 39.56 31.6702 40.44C26.1502 51.88 21.4568 60.3067 17.5902 65.72C14.1502 70.52 10.4968 72.92 6.63016 72.92C4.71016 72.92 3.21682 72.2133 2.15016 70.8C1.08349 69.3867 0.550155 67.2667 0.550155 64.44C0.550155 60.7333 1.96349 57.0133 4.79016 53.28C6.20349 51.4133 8.09682 49.6 10.4702 47.84C12.8435 46.08 15.4568 44.56 18.3102 43.28C21.1635 42.0267 24.5502 41 28.4702 40.2C29.8568 36.7333 31.2702 33.56 32.7102 30.68C36.3102 23.0533 39.6702 16.8933 42.7902 12.2L46.4702 6.6C45.5902 6.86667 44.0302 7.14667 41.7902 7.44C39.5768 7.73333 37.8835 7.90666 36.7102 7.96C36.0168 8.84 34.8168 10.12 33.1102 11.8C31.4035 13.4533 29.8568 14.8667 28.4702 16.04C28.0435 16.4667 27.7502 16.68 27.5902 16.68C27.4302 16.68 27.3502 16.6267 27.3502 16.52C27.3502 16.3333 27.6568 16 28.2702 15.52C28.8835 15.0133 30.0568 13.88 31.7902 12.12C33.5235 10.3333 34.7902 8.94667 35.5902 7.96C30.0435 7.96 27.2702 7.05333 27.2702 5.24C27.2702 4.22667 27.8435 3.30667 28.9902 2.48C30.1635 1.62666 31.4168 1.01333 32.7502 0.639998C34.1102 0.239998 35.2702 0.0399985 36.2302 0.0399985C38.4702 0.0399985 39.5902 0.786665 39.5902 2.28C39.5902 3.16 38.8435 4.76 37.3502 7.08C40.9768 6.89333 43.9102 6.38666 46.1502 5.56ZM36.2302 7.16C37.2435 5.69333 37.7502 4.54667 37.7502 3.72C37.7502 2.86667 37.4568 2.2 36.8702 1.72C36.2835 1.24 35.4435 0.999998 34.3502 0.999998C33.2568 0.999998 32.1768 1.32 31.1102 1.96C30.0435 2.57333 29.5102 3.53333 29.5102 4.84C29.5102 5.45333 29.6702 5.86667 29.9902 6.08C30.3102 6.29333 30.5768 6.46666 30.7902 6.6C31.0035 6.70666 31.2968 6.8 31.6702 6.88C32.0702 6.93333 32.4035 6.98666 32.6702 7.04C32.9635 7.06667 33.3502 7.09333 33.8302 7.12C34.3635 7.14666 34.7635 7.16 35.0302 7.16H36.2302ZM76.8711 39H61.6711V11H64.9911V38.6H76.8711V39Z" fill="#0D53BA"/>
</svg>
